<svg xmlns="http://www.w3.org/2000/svg" viewBox="0 0 128 128" role="img" aria-label="AIWatch">
  <defs>
    <linearGradient id="g" x1="24" y1="18" x2="104" y2="112" gradientUnits="userSpaceOnUse">
      <stop offset="0" stop-color="#7dd3fc"/>
      <stop offset="0.52" stop-color="#60a5fa"/>
      <stop offset="1" stop-color="#34d399"/>
    </linearGradient>
    <filter id="s" x="-20%" y="-20%" width="140%" height="140%">
      <feDropShadow dx="0" dy="8" stdDeviation="10" flood-color="#020617" flood-opacity="0.28"/>
    </filter>
  </defs>
  <rect width="128" height="128" rx="30" fill="#07111f"/>
  <circle cx="64" cy="64" r="42" fill="none" stroke="#1e3a5f" stroke-width="4"/>
  <circle cx="64" cy="64" r="27" fill="none" stroke="#244f7c" stroke-width="3"/>
  <path d="M64 64 94 35" stroke="url(#g)" stroke-width="8" stroke-linecap="round" filter="url(#s)"/>
  <path d="M31 79c10 15 29 23 48 16 11-4 20-13 24-24" fill="none" stroke="url(#g)" stroke-width="7" stroke-linecap="round"/>
  <circle cx="64" cy="64" r="9" fill="url(#g)"/>
  <circle cx="94" cy="35" r="7" fill="#d9f99d"/>
  <path d="M37 39h14l6 37h-9l-1-8H36l-4 8h-9l14-37Zm2 21h7l-2-12-5 12Zm28-21h9v37h-9V39Z" fill="#e5f6ff"/>
</svg>
